<svg xmlns="http://www.w3.org/2000/svg" xml:space="preserve" viewBox="0 0 179.648 179.648" id="root"><circle cx="89.824" cy="89.824" r="89.824" style="color:#000;clip-rule:nonzero;display:inline;overflow:visible;visibility:visible;opacity:1;isolation:auto;mix-blend-mode:normal;color-interpolation:sRGB;color-interpolation-filters:linearRGB;solid-color:#000;solid-opacity:1;fill:#00a7de;fill-opacity:1;fill-rule:nonzero;stroke:none;stroke-width:.351836;stroke-linecap:butt;stroke-linejoin:miter;stroke-miterlimit:4;stroke-dasharray:none;stroke-dashoffset:0;stroke-opacity:1;color-rendering:auto;image-rendering:auto;shape-rendering:auto;text-rendering:auto"/><path d="M142.792 105.84h-14.29c-6.621 0-11.868-5.116-11.868-12.31h26.944c2.229 0 4.098-2.083 4.098-4.37.108-11.72-8.692-20.175-19.388-20.175-9.846 0-18.228 7.422-19.455 16.928H94.114V72.781c0-2.1-1.79-3.807-3.883-3.807-2.114 0-3.882 1.707-3.882 3.807v13.138l-16.088-.006c2.133-2.5 3.441-6.209 3.441-9.866 0-9.665-7.834-17.511-17.508-17.511h-15.21a3.806 3.806 0 0 0-3.81 3.819v47.457a3.797 3.797 0 0 0 3.81 3.802 3.797 3.797 0 0 0 3.81-3.802V93.531h14.243l13.38 18.507a3.82 3.82 0 0 0 3.101 1.576c.776 0 1.548-.235 2.22-.723a3.806 3.806 0 0 0 .851-5.316L68.442 93.531h17.907c-.017.956 0 8.94 0 8.94 0 6.585 4.786 11.084 11.073 11.084h2.282c2.125 0 3.835-1.735 3.835-3.855 0-2.114-1.71-3.86-3.835-3.86h-2.282c-1.838 0-3.3-1.55-3.3-3.54v-8.77h14.588c0 11.353 8.926 20.025 19.714 20.025h14.256c2.114 0 3.936-1.746 3.936-3.855 0-2.12-1.705-3.86-3.824-3.86M128.27 76.658c5.623 0 10.789 3.944 11.606 9.26h-22.989c.907-5.034 5.757-9.26 11.383-9.26m-72.04 9.26H44.859V66.16h11.372a9.87 9.87 0 0 1 9.874 9.872c0 5.461-4.416 9.888-9.874 9.888" style="fill:#fff"/></svg>