<svg xmlns="http://www.w3.org/2000/svg" fill="currentColor" viewBox="0 0 111.661 90.626" id="root"><path d="M43.686 0a7.976 7.976 0 0 0-7.995 7.994V14H16.64A16.6 16.6 0 0 0 0 30.639v43.35c0 9.217 7.42 16.638 16.639 16.638H95.02c9.218 0 16.64-7.42 16.64-16.639v-43.35A16.603 16.603 0 0 0 95.02 14H75.97V7.994A7.976 7.976 0 0 0 67.977 0zM32.332 42.805a9.51 9.51 0 0 1 9.508 9.508 9.51 9.51 0 0 1-9.508 9.51 9.51 9.51 0 0 1-9.51-9.51 9.51 9.51 0 0 1 9.51-9.508m46.998 0a9.51 9.51 0 0 1 9.51 9.508 9.51 9.51 0 0 1-9.51 9.51 9.51 9.51 0 0 1-9.51-9.51 9.51 9.51 0 0 1 9.51-9.508m-30.564 5.783h2.877c0 2.592 1.91 4.572 4.187 4.572s4.188-1.98 4.188-4.572h2.877c0 4.047-3.127 7.45-7.065 7.45s-7.064-3.403-7.064-7.45"/></svg>