<svg xmlns="http://www.w3.org/2000/svg" fill="none" viewBox="0 0 58 67.09" id="root"><path fill="currentColor" d="M2.094 22.41h53.927c.19-.485.394-1.055.598-1.708l.032-.102C57.362 18.324 58 16.282 58 12.119c0-2.111-1.372-3.89-3.187-5.295-1.84-1.424-4.352-2.643-7.151-3.637C42.058 1.197 34.99 0 29 0S15.942 1.196 10.338 3.187c-2.799.994-5.311 2.213-7.15 3.637C1.371 8.23 0 10.008 0 12.12c0 3.865.646 5.902 1.31 7.995l.186.588c.204.653.409 1.223.598 1.707m16.36-7.91a2.636 2.636 0 0 1 2.637-2.636h15.818a2.636 2.636 0 1 1 0 5.272H21.091a2.636 2.636 0 0 1-2.637-2.636M2.693 28.764c.12-.627.693-1.082 1.363-1.082h49.888c.67 0 1.243.455 1.363 1.082v.003l.002.003v.008l.004.018.008.048.018.142c.012.115.023.269.024.456.004.375-.031.889-.173 1.493-.287 1.222-1.004 2.776-2.645 4.285-3.254 2.993-9.938 5.644-23.545 5.644S8.709 38.213 5.455 35.22c-1.641-1.51-2.358-3.063-2.645-4.285a6.3 6.3 0 0 1-.173-1.493 5 5 0 0 1 .042-.598l.008-.048.003-.018.001-.008.001-.003Z" clip-rule="evenodd"/><rect width="5.173" height="34.61" x="5.248" y="32.48" fill="currentColor" rx="2.586"/><rect width="5.173" height="47.465" x="-67.09" y="5.248" fill="currentColor" rx="2.586" transform="rotate(-90)"/><rect width="5.173" height="34.61" x="47.541" y="32.48" fill="currentColor" rx="2.586"/><path fill="currentColor" d="M37.643 42.328a3.939 2.012.872 0 0-3.97 1.951 3.939 2.012.872 0 0 .223.674 3.939 2.012.872 0 1 3.727-1.285 3.939 2.012.872 0 1 3.688 1.393 3.939 2.012.872 0 0 .24-.66 3.939 2.012.872 0 0-3.908-2.073m-17.623.006a3.939 2.012.872 0 0-3.97 1.951 3.939 2.012.872 0 0 .225.676 3.939 2.012.872 0 1 3.727-1.287 3.939 2.012.872 0 1 3.686 1.39 3.939 2.012.872 0 0 .24-.66 3.939 2.012.872 0 0-3.908-2.07"/></svg>