<svg xmlns="http://www.w3.org/2000/svg" fill="none" stroke="currentColor" stroke-linecap="round" stroke-linejoin="round" stroke-width="2" class="lucide lucide-plane" viewBox="0 0 21.352 23.92" id="root"><path d="m19.846 14.718-7.071-4.526v-4.95c0-2.12-1.06-3.888-2.122-4.242-1.06.354-2.12 2.121-2.12 4.243v4.95L1.46 14.717c-.424.283-.566.707-.424 1.131l.141.566c.212.495.637.778 1.132.707l6.222-1.273.707 3.536-2.121 2.121v1.414l3.535-.707 3.536.707v-1.414l-2.121-2.121.707-3.536 6.222 1.273c.495.07.92-.212 1.132-.707l.212-.495c.07-.495-.07-.92-.495-1.202"/></svg>