<svg xmlns="http://www.w3.org/2000/svg" xml:space="preserve" viewBox="0 0 211.4 110.8" id="root"><defs><linearGradient id="a" x2="1" gradientTransform="matrix(168.9 0 0 -168.9 118.1 67.38)" gradientUnits="userSpaceOnUse"><stop offset="0" style="stop-color:#7c2270"/><stop offset=".247" style="stop-color:#aa147e"/><stop offset=".815" style="stop-color:#e41d25"/><stop offset="1" style="stop-color:#e41d25"/></linearGradient><clipPath id="b"><path d="M0 0h311.8v510.2H0z"/></clipPath></defs><path d="M121.2 61.99c-1.882-.079-3.105-.949-3.105-2.808v-82.9c0-1.445 1.035-2.752 2.631-2.752h148c1.329 0 2.39.12 3.015 1.875 0 0 15 46.94 15.26 47.79.557 1.773.196 2.673-1.317 3.636-48.2 30.89-120.3 35.37-153 35.37-4.694 0-8.571-.094-11.47-.21" style="fill:url(#a)" transform="matrix(1.25 0 0 -1.25 -147.6 77.75)"/><g clip-path="url(#b)" style="stroke-width:.2657" transform="matrix(4.705 0 0 -4.705 -1139.975 292.625)"><g style="stroke-width:.2657"><path d="M0 0c-.55.641-.768 1.468-.632 2.39.324 2.199 2.464 3.589 5.327 3.589.603 0 1.224-.038 1.782-.109l.566 1.659c-.69.106-1.526.151-2.346.151-2.539 0-4.747-.874-6.178-2.415-.045-.048-.091-.047-.119-.047-.044 0-.074.008-.062.047l.717 2.249h-2.096L-5.335.317c-.73 2.124-2.232 4.917-4.069 7.197h-2.251l-1.683-5.239c.846-.629 1.114-1.083 1.335-1.729.013-.038.04-.046.081-.046s.061.01.072.046l1.468 4.553C-8.901 2.98-7.431.192-6.643-2.752h2.414l1.194 3.73c.013.038.039.046.079.046.042 0 .069-.011.074-.046.363-2.342 2.692-3.916 5.993-3.916 2.134 0 4.063.56 4.543.817l1.251 3.94h4.804l.489 1.526H9.393l.829 2.587h5.725l.499 1.582H8.404l-2.73-8.533c-.579-.146-1.295-.218-2.043-.218C2.02-1.237.73-.854 0 0m-13.56 5.939.478 1.503c-.687.126-1.178.191-1.998.21-2.636.061-5.019-.666-5.632-2.206-.726-1.826 1.334-2.853 3.119-3.699 1.417-.672 2.537-1.311 2.143-2.148-.306-.649-1.309-.957-2.767-.924-1.263.03-2.838.392-4.079 1.017l-.738-1.596c.913-.424 2.795-1 4.401-1.037 3.016-.069 4.969.69 5.751 2.332.925 1.944-1.37 3.007-3.213 3.897-1.443.697-2.427 1.061-2.19 1.762.28.83 1.731 1.145 3.046 1.115a7.7 7.7 0 0 0 1.679-.226" style="fill:#fff" transform="translate(267.3 44.78)"/></g></g></svg>