<svg xmlns="http://www.w3.org/2000/svg" fill="currentColor" viewBox="0 0 18.188 9.5" id="root"><path fill="none" stroke="currentColor" stroke-linecap="round" stroke-linejoin="round" stroke-miterlimit="10" stroke-width="1.5" d="M4.849 1.974 7.125 4.25 4.849 6.526M.75 4.25h6.311"/><path fill="none" stroke="currentColor" stroke-linecap="round" stroke-linejoin="round" stroke-width="1.5" d="M17.438 8.75c0-1.548-1.57-2.8-3.5-2.8-1.932 0-3.5 1.252-3.5 2.8m3.5-4c.54 0 1.058-.21 1.44-.586.382-.375.597-.884.597-1.414s-.215-1.04-.597-1.414a2.06 2.06 0 0 0-1.44-.586c-.54 0-1.059.21-1.441.586A1.98 1.98 0 0 0 11.9 2.75c0 .53.215 1.04.597 1.414.382.375.9.586 1.44.586"/></svg>