<svg xmlns="http://www.w3.org/2000/svg" fill="currentColor" viewBox="0 0 22 24" id="root"><path d="M19.908 4.62 12.78.504a3.8 3.8 0 0 0-3.78 0L1.884 4.62A3.78 3.78 0 0 0 0 7.896v8.208c0 1.344.72 2.592 1.884 3.276l7.128 4.116a3.8 3.8 0 0 0 3.78 0l7.128-4.116a3.78 3.78 0 0 0 1.884-3.276V7.896a3.83 3.83 0 0 0-1.896-3.276M9.996 6.9c0-.492.408-.9.9-.9s.9.408.9.9v6.3c0 .492-.408.9-.9.9a.907.907 0 0 1-.9-.9zM12 17.556q-.09.216-.252.396a1.19 1.19 0 0 1-1.308.252 1.2 1.2 0 0 1-.396-.252 1.8 1.8 0 0 1-.264-.396 1.2 1.2 0 0 1-.084-.456c0-.312.12-.624.348-.852.12-.108.24-.192.396-.252a1.2 1.2 0 0 1 1.308.252c.108.12.192.24.252.396.06.144.096.3.096.456s-.036.312-.096.456"/></svg>