<svg xmlns="http://www.w3.org/2000/svg" version="1.0" viewBox="0 0 1024 1024" id="root"><path d="M385.4 98.5c-18.6 4.1-35.6 15.8-45.8 31.5-4.4 6.8-9 17-10.2 23-.4 1.9-1 4.2-1.2 5s-.5 16-.7 33.8c-.1 17.7-.5 32.6-.9 32.9-.4.4-43.1.8-94.9.9-87.6.2-97.8.4-104.7 1.9-1.4.3-3.8.8-5.5 1.1-13.5 2.3-32.9 9.9-47 18.2-16.7 9.9-35.2 27-46.4 42.7C19.3 302 7.8 326.2 5.5 337c-.2.8-.9 3.7-1.5 6.5C.1 360.3.1 357.3.3 580.5l.3 215 2.2 10c5.6 24.5 14.3 43.6 28.1 62 9.2 12.3 21.3 24 32.6 31.7 3.3 2.3 6.2 4.4 6.5 4.7.9 1.1 8.3 5.1 16.6 9.1 8.1 3.8 19 7.8 27.4 10 4.8 1.3 5 1.3 15 3.3 5.1.9 86.5 1.2 384 1.2h377.5l10.5-2.3c32.2-7.1 55.5-19.7 78-42.2 13.6-13.6 21.3-24.1 29.1-40 4.4-9 10.3-24.6 11.3-30 .2-1.4.9-4.7 1.5-7.4.7-2.7 1.5-6.3 1.8-8 1.1-5.1 1.3-430.3.2-437.6-2.8-19.8-6.7-32.8-14.4-48.7-8.5-17.3-16-27.8-30-41.8-6.9-7-22.3-19.5-23.9-19.5-.3 0-2.2-1.2-4.3-2.6-4.6-3.1-23.7-12.4-25.6-12.4-.8 0-1.7-.3-2.1-.8-.4-.4-1.1-.7-1.4-.8-.4 0-3.2-.8-6.3-1.7-7.8-2.3-19.3-4.7-26.9-5.4-3.6-.4-48-.7-98.8-.8-91.5 0-92.2 0-92.3-2 0-1.1-.1-16.2-.2-33.5s-.5-32-.9-32.6-1-2.6-1.3-4.4c-1.9-10.5-10.7-26.2-19.6-34.7-11.1-10.6-17.6-14.2-36.4-20.1-1.1-.4-57.1-.7-124.5-.8-99.8-.2-123.6 0-128.6 1.1m-77 391.9c7.4 1.1 9.1 1.5 15.3 3.5 21.8 7 41.7 24.4 51.3 45.1 15.8 33.7 9 73.3-16.9 99.1-17.7 17.6-38.5 25.9-63.7 25.4-30.1-.6-56.9-16.1-72.8-42.4-3.7-6-9.1-19.4-10.1-24.8-.2-1.6-.8-4.9-1.3-7.4-1.1-6-.7-23 .7-29.4 7.1-31.4 28.2-55.2 58.1-65.4 11.6-4 27.4-5.5 39.4-3.7m432.6.1c17 2.3 36 12.2 49.2 25.7 3.8 3.9 11.8 14.2 11.8 15.3 0 .3 1.1 2.3 2.5 4.5 2.9 4.6 8 19.2 9 26 .9 5.5 1.1 23.4.3 27.5-.3 1.6-.9 4.8-1.3 7-1.3 6.7-6.9 19.8-11.7 27.1-16.1 24.9-42.3 39.5-71.3 39.8-13.5.1-19.6-.7-29.4-4-24.3-8.1-44.3-27-53.6-50.9-4.1-10.4-5.8-19.7-5.9-31.5 0-11.3.7-16.7 3.5-25.7 7-22.5 22.7-41.3 43.4-52 5.3-2.7 14.2-6.1 17-6.4.6-.1 1.9-.5 3.1-.9 1.1-.5 4.5-1.1 7.5-1.5s5.5-.8 5.6-.9c.5-.4 15.1.2 20.3.9m-267.8 52.4c.4 0 .6.9.6 1.8-.2 5 1.8 12.4 4.8 18.2 12.5 23.9 41.4 28.6 59.8 9.8 5.8-5.9 10.6-16 11.4-23.7.2-3 .8-5.7 1.3-6 .4-.3 6.3-.5 13.1-.5h12.3l-.3 6c-1.1 26.7-21.4 52.3-47.7 60.1-8.1 2.4-24.8 2.4-33 0-26.7-8-45.1-31.1-48.1-60.4-.2-2.4-.2-4.7 0-5.1.3-.5 23-.7 25.8-.2"/></svg>