<svg xmlns="http://www.w3.org/2000/svg" version="1.0" viewBox="0 0 1072 1072" id="root"><path d="M503.8.5c-.2.1-5.5.5-11.8.9-15.2.9-24.4 1.5-30.5 2.2-2.7.2-7.5.7-10.5 1-3 .2-6.8.6-8.5.9-1.6.2-5.9.7-9.5 1.1-3.6.3-6.9.9-7.3 1.1-.5.3-3.2.6-6 .8-2.9.1-7 .6-9.2.9-2.2.4-6.5 1.1-9.5 1.6s-7.3 1.2-9.5 1.5c-2.2.3-5.1.8-6.5 1.2-1.4.3-3.6.7-5 .9-1.4.2-3.6.5-5 .8-1.4.2-4.3.7-6.5 1.1-3.3.6-26.9 5.5-34 7.1-1.1.2-3.6.7-5.5 1-1.9.3-3.8.8-4.2 1.1-.5.2-1.8.6-2.9.8-4.6.9-19.5 4.7-21.9 5.5-1.4.5-3.6 1.1-5 1.4-1.4.2-3.7.9-5.2 1.5-1.6.6-2.8.8-2.8.6 0-.3-1.7.2-3.7.9-2.1.8-7.2 2.4-11.3 3.6-4.1 1.2-8.2 2.4-9 2.6-.8.3-1.7.6-2 .6-3.5.6-44.4 15.6-51.5 18.8-2.4 1.1-4.6 2-4.8 2-.3 0-2.6 1-5.3 2.2-2.7 1.2-5.5 2.3-6.3 2.4-.8.2-1.7.7-2 1.2-.3.5-2.3 1.5-4.3 2.1-2.1.7-4 1.7-4.3 2.2-.4.5-1.3.9-2.2.9-.9 0-2.4.7-3.4 1.6-.9.8-2.3 1.7-3.1 1.8-2.3.5-6.8 2.9-6.8 3.7 0 .4-1.3 1-2.9 1.4-1.6.3-3.5 1.3-4.2 2.1-.6.8-1.5 1.4-2 1.4-.9 0-16.1 9-16.9 10-.3.4-1.6 1.3-2.9 2-1.4.7-3 1.7-3.5 2.2-.6.5-4.3 3.2-8.1 6.1-24.2 18-42.2 40-49 60.2-2 5.8-2.2 6.7-3.6 16-1.6 10.2-.1 51 2.5 64.5.2 1.4.8 5.2 1.2 8.5 1.2 9 1.3 9.7 4 21.4.9 3.6 1.7 7.3 1.9 8.1.8 3.4 3.6 13.6 4.1 15 .3.8.5 1.6.6 1.7.1 1.6 6 19.7 6.8 21.2.6 1.2.9 2.1.6 2.1-.2 0 1.8 6.4 4.6 14.2 2.7 7.9 5 14.9 5 15.5.1.7.9 1.5 1.8 1.8 1.5.5 26.5.9 28.5.5.6-.1 1.2-.2 1.5-.1 1.6.6 25 .5 25-.1 0-.4 1.3-.3 3 .2 1.8.5 3.2.5 3.6-.1.3-.5.9-.7 1.4-.4 1.5.9 8 1.2 8 .4 0-.4 1.3-.4 3 .1 1.8.5 3.2.5 3.6-.1.3-.5 1-.6 1.6-.3.9.6 18.7.9 21.3.4.6-.2 1.5-.2 2 0 1.3.2 20.8.2 22.1-.1.5-.1 1.4-.1 1.9 0 1.4.3 36.8.3 38 .1.6-.1 1.5-.2 2 0 1.3.2 20.8.2 22.1-.1.5-.1 1.1-.1 1.4 0 1.6.6 25 .5 25-.1 0-.4 1.3-.3 3 .2 1.8.5 3.2.5 3.6-.1.3-.5.9-.7 1.4-.4 1.5.9 8 1.2 8 .4 0-.4 1.3-.4 3 .1 1.8.5 3.2.5 3.6-.1.3-.5 1-.6 1.6-.3.9.6 18.7.9 21.3.4.6-.2 1.5-.2 2 0 1.3.2 20.8.2 22.1-.1.5-.1 1.1-.1 1.4 0 1.6.6 25 .5 25-.1 0-.4 1.3-.3 3 .2 1.8.5 3.2.5 3.6-.1.3-.5.9-.7 1.4-.4 1.5.9 8 1.2 8 .4 0-.4 1.3-.4 3 .1 1.8.5 3.2.5 3.6-.1.3-.5 1-.6 1.6-.3.9.6 18.7.9 21.3.4.6-.2 1.5-.2 2 0 1.3.2 20.8.2 22.1-.1.5-.1 1.1-.1 1.4 0 1.6.6 25 .5 25-.1 0-.4 1.3-.3 3 .2 1.8.5 3.2.5 3.6-.1.3-.5.9-.7 1.4-.4 1.5.9 8 1.2 8 .4 0-.4 1.3-.4 3 .1 1.8.5 3.2.5 3.6-.1.3-.5 1-.6 1.6-.3.9.6 18.7.9 21.3.4.6-.2 1.5-.2 2 0 1.3.2 20.8.2 22.1-.1.5-.1 1.1-.1 1.4 0 1.6.6 25 .5 25-.1 0-.4 1.3-.3 3 .2 1.8.5 3.2.5 3.6-.1.3-.5.9-.7 1.4-.4 1.5.9 8 1.2 8 .4 0-.4 1.3-.4 3 .1 1.8.5 3.2.5 3.6-.1.3-.5.9-.7 1.4-.4 1.5.9 8 1.2 8 .4 0-.4 1.3-.4 3 .1 1.8.5 3.2.5 3.6-.1.3-.5.9-.7 1.4-.4 1.5.9 8 1.2 8 .4 0-.4 1.3-.4 3 .1 1.8.5 3.2.5 3.6-.1.3-.5 1-.6 1.6-.3.9.6 18.7.9 21.3.4.6-.2 1.5-.2 2 0 1.3.2 20.8.2 22.1-.1.5-.1 1.1-.1 1.4 0 1.6.6 25 .5 25-.1 0-.4 1.3-.3 3 .2 1.8.5 3.2.5 3.6-.1.3-.5.9-.7 1.4-.4 1.5.9 8 1.2 8 .4 0-.4 1.3-.4 3 .1 1.8.5 3.2.5 3.6-.1.3-.5 1-.7 1.5-.3.9.5 26.9.9 29.4.4.6-.1 1.5-.2 2-.1 1.4.3 28.9.3 30 .1.6-.1 1.5-.2 2-.1 1.4.3 28.9.3 30 .1.6-.1 1.5-.2 2-.1 1.4.3 28.9.3 30 .1.6-.1 1.5-.2 2 0 1.3.2 20.8.2 22.1-.1.5-.1 1.4-.1 1.9.1 1.3.2 20.8.2 22.1-.1.5-.1 1.1-.1 1.4 0 1.6.6 25 .5 25-.1 0-.4 1.3-.3 3 .2l2.9.8 3.5-9.1c3-7.9 5.5-15.7 14.1-43.7 1.9-6.3 5.3-19.8 6-24 .3-1.9.8-4.2 1-5 .2-.8.7-2.9 1-4.5.3-1.7.8-4.4 1.1-6 .3-1.7.7-4.6 1-6.5.3-1.9.6-4.6.8-6 .2-1.4.7-6.1 1.1-10.5.4-4.4.9-8.9 1.1-10 .3-1.1.7-11.9 1-24.1.4-18.1.2-23.4-1.2-30-.9-4.3-1.7-8.6-1.9-9.4-1.1-5.6-11.6-24.5-18.1-32.9-2.6-3.2-21.2-22.1-21.9-22.1-.3 0-1.9-1.2-3.6-2.8-5.2-4.5-5.4-4.7-7-5.7l-12-8c-5.7-3.9-13.8-9-17.9-11.4-8.7-5-39.8-20.3-44-21.6-.3-.1-1.8-.7-3.5-1.5-6.5-2.8-9.4-4-19.6-7.9-5.8-2.2-15.5-5.6-21.5-7.6s-11.6-3.9-12.4-4.2c-.8-.4-1.8-.7-2.2-.8-.5-.2-.9-.3-1-.5-.2-.1-1-.3-1.8-.5-2.7-.5-22.1-6.4-22.9-6.9-.4-.3-2.1-.8-3.7-1.1-1.6-.3-6.3-1.4-10.4-2.5-4.1-1.2-8.8-2.3-10.5-2.6-1.6-.3-3.8-1-4.7-1.5-1-.5-1.8-.8-1.8-.5 0 .3-1.5 0-3.2-.5-1.8-.6-4.6-1.2-6.3-1.5-1.6-.3-3.7-.8-4.5-1.1-.8-.3-2.3-.7-3.2-.8-1-.2-2.1-.4-2.5-.5-.5-.1-1.2-.3-1.8-.4-1.6-.3-8.8-1.8-11-2.3-1.1-.3-2.7-.6-3.5-.7-.8-.2-4-.8-7-1.4-3-.6-6.6-1.4-8-1.6-1.4-.3-3.4-.7-4.5-.9-1.1-.3-4.1-.7-6.6-1.1-4.4-.6-7.4-1.1-12.9-2.1-3.3-.7-13.5-2.3-18.5-3-2.3-.3-5-.7-6.2-.9-2.1-.4-12.7-1.6-18.4-2.1-1.4-.1-3-.4-3.5-.7-.5-.2-2.6-.4-4.6-.4-2.1.1-3.8-.1-3.8-.4 0-.3-2.1-.6-4.8-.7-2.6-.1-6.9-.4-9.7-.7-2.7-.3-9-.8-14-1.1-4.9-.4-11.2-.8-14-1.1C578 .9 504.3 0 503.8.5m166.7 189.9c4.8.7 14.5 4.5 14.5 5.6 0 .5.8 1.1 1.9 1.5 1 .3 3.6 2.4 5.9 4.6 15.4 15.6 16.1 41.7 1.3 57.6-5.7 6.2-15.2 12-21.5 13-1.2.2-9.2.6-17.9.8-8.7.2-16.4.6-17.2.9-.8.3-1.6.2-1.9-.2-.5-.8-27.9-.7-30.1.2-.8.3-1.6.2-1.9-.2-.5-.8-27.9-.7-30.1.2-.8.3-1.6.2-1.9-.2-.5-.8-27.9-.7-30.1.2-.8.3-1.6.2-1.9-.2-.4-.6-43.4-.8-46.1-.2-.5.1-1.2.2-1.5 0-.3-.1-20.7-.2-45.5-.3-41.8-.2-45.4-.4-50-2.2-13-5-21.5-13.6-26.6-27-1.7-4.5-2-18.6-.4-23.8 4.7-15.7 16.9-27 32.3-30.1 5.7-1.2 261.2-1.4 268.7-.2M130.6 443.7c-4.7 1.4-13.2 8.6-13.4 11.4 0 .8-.5 3.1-1 5.2-.8 3-1 23.2-.2 23.2.1 0 .3 1.3.4 3 .2 1.6 1.1 5.9 2 9.5 1 3.6 1.9 6.9 2 7.5.3 1.2 2.2 6.1 3.6 9.2 2.6 6 3.7 8.2 6.4 12.8 1.6 2.7 3.5 6.1 4.2 7.3.6 1.3 2.4 3.8 3.8 5.5 1.4 1.8 3.9 5 5.7 7.2 1.7 2.2 5.2 6.3 7.9 9.1l4.9 5.1-.1 239.1c0 131.5.3 239.6.7 240.2.3.6.8 2.2 1.1 3.6.8 4.6 5.4 12.2 10.6 17.4 5.2 5.3 12 9 19.8 11 3.2.8 101.4 1 350.1.8l345.5-.3 7.5-3.7c10.4-5.1 17.8-13.5 21.5-24.3 1.7-4.7 1.8-19.2 1.8-244v-239l2.6-2.6c5.5-5.7 13.4-15.1 17.9-21.6 4.9-7 13.5-22.3 12.4-22.3-.3 0-.1-.6.4-1.3.6-.6 2.2-4.8 3.6-9.2 4.3-13 5-18.1 5.1-33.1.1-9.9-.2-11.5-2.5-15.9-2.6-5.1-8.3-10-12.9-11.2-1.4-.3-183.5-.7-404.7-.8-333.7-.1-402.9.1-406.7 1.2M257 616.5c7.4 2.6 14 4.8 14.5 4.9.6.2 1.7.6 2.5.9 1.7.6 6.9 2 8.5 2.2.6.1 1.7.5 2.5.8 3.2 1.4 36.9 9.2 43.4 10.2 2.1.3 4.1.7 4.5.9.3.3 2.7.7 5.1 1 2.5.4 5.9 1 7.5 1.3 1.7.4 3.5.7 4 .8.9.1 7.1 1 13.5 2.1 4.8.8 11.5 1.6 15 1.9 1.9.2 3.5.4 3.5.5 0 .1 1.4.4 3 .5 2.8.3 5.9.6 17 2 4.9.6 13.9 1.4 22.5 2 3.6.3 8.8.7 11.5 1 2.8.2 10 .7 16 1 6.1.3 15.1.8 20 1.2 23.4 1.5 135.1.6 151.5-1.2 1.9-.2 7.8-.7 13-1 5.2-.3 11.8-.8 14.5-1.1 2.8-.2 7.5-.7 10.5-.9 15.7-1.4 19.7-1.9 27.5-3.1 1.7-.2 4.8-.6 7-.8 5.8-.6 11.5-1.4 25-3.7 6.6-1.2 13.1-2.3 14.5-2.5 5.2-.8 7.5-1.3 7.5-1.4 0-.1 1.1-.3 2.5-.5 3.1-.4 7.5-1.3 12-2.5 1.9-.5 4.6-1.1 6-1.3 1.4-.3 4.3-1 6.5-1.5 2.2-.6 5.1-1.3 6.5-1.6 6.5-1.3 25-6.8 38.5-11.5 8.3-2.9 15.7-5.5 16.6-5.8 1.5-.4 1.7 14.1 1.7 188.5 0 140.8-.3 189.2-1.2 189.4-.9.3-588.3.2-591.1-.1-.7-.1-1-63.5-.9-188.9.1-103.8.2-188.9.3-189.1.1-.4.7-.2 17.1 5.4"/><path d="M377 677.2c-13.5 1.8-28.7 6.7-32.8 10.5-.7.7-1.7 1.3-2.1 1.3-.5 0-2.9 2-5.4 4.4-7.2 6.8-9.2 17.4-4.5 23.3.8.9 2 .3 5-2.6 3.9-3.9 15.9-10.5 20.8-11.5 1.4-.3 4.3-1 6.5-1.6 2.2-.6 6-1.4 8.5-1.8 6-.9 31.4-.9 36.5.1 2.2.4 5.3 1 6.9 1.3 1.6.3 3.3.7 3.8 1 .5.3 2.1.8 3.6 1 5 .9 18.8 8.2 23.1 12.3 2.4 2.3 4.7 4.1 5.1 4.1.5 0 1.4-1.6 2-3.6 3.2-9.7-.2-17.3-11.5-25.6-3.4-2.5-9.1-5.6-11.7-6.3-.5-.2-1-.4-1.3-.5-.3-.1-.8-.3-1.2-.4-.5-.2-2.8-.9-5.3-1.6-5.7-1.7-4.3-1.4-12.7-2.9-8.6-1.5-25.5-2-33.3-.9m282-.1c-3.6.4-8.5 1.2-11 1.9s-5.2 1.4-6 1.5c-3.3.7-10.1 3.5-14.5 5.9-13.1 7.4-18.9 18.4-14.7 27.9l1.7 3.9 3.5-3.4c6-5.9 17.3-11.7 25.8-13.3.9-.2 1.7-.4 1.7-.5 0-.2 2.6-.8 7-1.5 2.2-.3 5.2-.8 6.6-1.1 3.8-.7 21.5-.7 27.4.1 17 2.2 34.6 9.1 42.6 16.9l4.6 4.4 1.7-3.4c3.2-6.9 1-15.8-5.7-22.4-5.7-5.6-19.9-12.5-30.2-14.6-5.5-1.1-7.3-1.4-10.5-2-5.4-.9-22.8-1.1-30-.3"/></svg>