<svg width="26" height="26" viewBox="0 0 26 26" fill="none" xmlns="http://www.w3.org/2000/svg">
<path d="M12.5494 0C5.61686 0 0 5.61686 0 12.5494C0 19.4819 5.61686 25.0988 12.5494 25.0988C19.4819 25.0988 25.0988 19.4819 25.0988 12.5494C25.0988 5.61686 19.4819 0 12.5494 0ZM15.4388 17.7159L10.9756 14.4723C10.8188 14.3559 10.7277 14.1737 10.7277 13.9814V5.46505C10.7277 5.13108 11.0009 4.85782 11.3349 4.85782H13.7638C14.0978 4.85782 14.3711 5.13108 14.3711 5.46505V12.433L17.5843 14.7708C17.8576 14.9682 17.9132 15.3477 17.7159 15.6209L16.2889 17.5843C16.0915 17.8525 15.712 17.9132 15.4388 17.7159Z" fill="#999"/>
</svg>
