<svg width="25" height="25" viewBox="0 0 25 25" fill="none" xmlns="http://www.w3.org/2000/svg">
<path d="M3.125 7.29175V11.4584C3.125 11.7347 3.23475 11.9996 3.4301 12.195C3.62545 12.3903 3.8904 12.5001 4.16667 12.5001H7.29167" stroke="#999" stroke-width="2" stroke-linecap="round" stroke-linejoin="round"/>
<path d="M7.29175 7.29175V17.7084" stroke="#999" stroke-width="2" stroke-linecap="round" stroke-linejoin="round"/>
<path d="M10.4167 8.33341V16.6667C10.4167 16.943 10.5265 17.208 10.7218 17.4033C10.9172 17.5987 11.1821 17.7084 11.4584 17.7084H13.5417C13.818 17.7084 14.083 17.5987 14.2783 17.4033C14.4737 17.208 14.5834 16.943 14.5834 16.6667V8.33341C14.5834 8.05715 14.4737 7.7922 14.2783 7.59685C14.083 7.40149 13.818 7.29175 13.5417 7.29175H11.4584C11.1821 7.29175 10.9172 7.40149 10.7218 7.59685C10.5265 7.7922 10.4167 8.05715 10.4167 8.33341Z" stroke="#999" stroke-width="2" stroke-linecap="round" stroke-linejoin="round"/>
<path d="M17.7083 7.29175V11.4584C17.7083 11.7347 17.818 11.9996 18.0133 12.195C18.2087 12.3903 18.4737 12.5001 18.7499 12.5001H21.8749" stroke="#999" stroke-width="2" stroke-linecap="round" stroke-linejoin="round"/>
<path d="M21.875 7.29175V17.7084" stroke="#999" stroke-width="2" stroke-linecap="round" stroke-linejoin="round"/>
</svg>
