<svg width="25" height="25" viewBox="0 0 25 25" fill="none" xmlns="http://www.w3.org/2000/svg">
<path d="M21.5 24H3.5C3.09375 24 2.74219 23.8555 2.44531 23.5664C2.14844 23.2773 2 22.9219 2 22.5V1.52344C2 1.10156 2.14844 0.746094 2.44531 0.457031C2.74219 0.167969 3.09375 0.0234375 3.5 0.0234375H14V8.27344C14 8.47656 14.0742 8.65234 14.2227 8.80078C14.3711 8.94922 14.5469 9.02344 14.75 9.02344H23V22.5C23 22.9219 22.8555 23.2773 22.5664 23.5664C22.2773 23.8555 21.9219 24 21.5 24ZM19.25 19.5H18.5V14.25C18.5 14.0469 18.4258 13.8711 18.2773 13.7227C18.1289 13.5742 17.9531 13.5 17.75 13.5H16.25C16.0469 13.5 15.8711 13.5742 15.7227 13.7227C15.5742 13.8711 15.5 14.0469 15.5 14.25V19.5H14V11.25C14 11.0469 13.9258 10.8711 13.7773 10.7227C13.6289 10.5742 13.4531 10.5 13.25 10.5H11.75C11.5469 10.5 11.3711 10.5742 11.2227 10.7227C11.0742 10.8711 11 11.0469 11 11.25V19.5H9.5V15.75C9.5 15.5469 9.42578 15.3711 9.27734 15.2227C9.12891 15.0742 8.95312 15 8.75 15H7.25C7.04688 15 6.87109 15.0742 6.72266 15.2227C6.57422 15.3711 6.5 15.5469 6.5 15.75V19.5H5.75C5.54688 19.5 5.37109 19.5742 5.22266 19.7227C5.07422 19.8711 5 20.0469 5 20.25C5 20.4531 5.07422 20.6289 5.22266 20.7773C5.37109 20.9258 5.54688 21 5.75 21H19.25C19.4688 21 19.6484 20.9258 19.7891 20.7773C19.9297 20.6289 20 20.4531 20 20.25C20 20.0469 19.9258 19.8711 19.7773 19.7227C19.6289 19.5742 19.4531 19.5 19.25 19.5ZM15.5 0C15.9062 0 16.25 0.140625 16.5312 0.421875L22.5547 6.44531C22.8516 6.74219 23 7.10156 23 7.52344H15.5V0Z" fill="#999"/>
</svg>
