<svg width="25" height="25" viewBox="0 0 25 25" fill="none" xmlns="http://www.w3.org/2000/svg">
<path d="M24.5312 22.3438L17.9688 15.7813C17.6562 15.4688 17.1875 15.3125 16.7188 15.3125C17.9688 13.75 18.75 11.5625 18.75 9.375C18.75 4.21875 14.5312 0 9.375 0C4.21875 0 0 4.21875 0 9.375C0 14.5312 4.21875 18.75 9.375 18.75C11.5625 18.75 13.75 17.9688 15.3125 16.5625C15.3125 17.0312 15.3125 17.5 15.7813 17.8125L22.3438 24.375C22.6562 24.6875 23.125 24.8438 23.4375 24.8438C23.75 24.8438 24.2188 24.6875 24.5312 24.375C25.1562 23.9062 25.1562 22.9688 24.5312 22.3438ZM9.375 16.4062C5.46875 16.4062 2.34375 13.2812 2.34375 9.375C2.34375 5.46875 5.46875 2.34375 9.375 2.34375C13.2812 2.34375 16.4062 5.46875 16.4062 9.375C16.4062 13.2812 13.2812 16.4062 9.375 16.4062Z" fill="#999"/>
</svg>
