<svg width="25" height="25" viewBox="0 0 25 25" fill="none" xmlns="http://www.w3.org/2000/svg">
<path d="M23.9286 20H11.0714C10.7812 20 10.5301 19.9036 10.3181 19.7109C10.106 19.5182 10 19.2812 10 19V5.01562C10 4.73438 10.106 4.4974 10.3181 4.30469C10.5301 4.11198 10.7812 4.01562 11.0714 4.01562H18.5714V9.51562C18.5714 9.65104 18.6244 9.76823 18.7305 9.86719C18.8365 9.96615 18.9621 10.0156 19.1071 10.0156H25V19C25 19.2812 24.8968 19.5182 24.6903 19.7109C24.4838 19.9036 24.2299 20 23.9286 20ZM22.3214 17H21.7857V13.5C21.7857 13.3646 21.7327 13.2474 21.6267 13.1484C21.5206 13.0495 21.3951 13 21.25 13H20.1786C20.0335 13 19.9079 13.0495 19.8019 13.1484C19.6959 13.2474 19.6429 13.3646 19.6429 13.5V17H18.5714V11.5C18.5714 11.3646 18.5184 11.2474 18.4124 11.1484C18.3064 11.0495 18.1808 11 18.0357 11H16.9643C16.8192 11 16.6936 11.0495 16.5876 11.1484C16.4816 11.2474 16.4286 11.3646 16.4286 11.5V17H15.3571V14.5C15.3571 14.3646 15.3041 14.2474 15.1981 14.1484C15.0921 14.0495 14.9665 14 14.8214 14H13.75C13.6049 14 13.4794 14.0495 13.3733 14.1484C13.2673 14.2474 13.2143 14.3646 13.2143 14.5V17H12.6786C12.5335 17 12.4079 17.0495 12.3019 17.1484C12.1959 17.2474 12.1429 17.3646 12.1429 17.5C12.1429 17.6354 12.1959 17.7526 12.3019 17.8516C12.4079 17.9505 12.5335 18 12.6786 18H22.3214C22.4777 18 22.606 17.9505 22.7065 17.8516C22.8069 17.7526 22.8571 17.6354 22.8571 17.5C22.8571 17.3646 22.8041 17.2474 22.6981 17.1484C22.5921 17.0495 22.4665 17 22.3214 17ZM19.6429 4C19.933 4 20.1786 4.09375 20.3795 4.28125L24.6819 8.29688C24.894 8.49479 25 8.73438 25 9.01562H19.6429V4Z" fill="#999"/>
<path d="M2.37092 10.2761C2.91323 9.75549 2.91323 8.91111 2.37092 8.39047C1.8286 7.86984 0.94905 7.86984 0.406736 8.39047C-0.135579 8.91111 -0.135579 9.75549 0.406736 10.2761C0.949267 10.797 1.8286 10.797 2.37092 10.2761ZM7.92643 13.7239C7.38412 13.2032 6.50457 13.2032 5.96225 13.7239C5.41994 14.2445 5.41994 15.0889 5.96225 15.6095C6.50457 16.1302 7.38412 16.1302 7.92643 15.6095C8.46897 15.0889 8.46897 14.2447 7.92643 13.7239ZM7.88433 8.90236L7.39345 8.4311C7.12219 8.17068 6.68252 8.17068 6.41147 8.4311L0.449053 14.1551C0.177787 14.4156 0.177787 14.8376 0.449053 15.0979L0.939935 15.5691C1.2112 15.8295 1.65087 15.8295 1.92192 15.5691L7.88433 9.84508C8.1556 9.58486 8.1556 9.16278 7.88433 8.90236Z" fill="#999"/>
</svg>
