<svg width="25" height="25" viewBox="0 0 25 25" fill="none" xmlns="http://www.w3.org/2000/svg">
<path d="M8.19995 8V11.4833C8.19995 11.7143 8.2917 11.9358 8.45501 12.0991C8.61832 12.2624 8.83982 12.3541 9.07078 12.3541H11.6833" stroke="#999" stroke-width="2" stroke-linecap="round" stroke-linejoin="round"/>
<path d="M11.6833 8V16.7083" stroke="#999" stroke-width="2" stroke-linecap="round" stroke-linejoin="round"/>
<path d="M14.2959 8.87083V15.8375C14.2959 16.0684 14.3876 16.2899 14.551 16.4532C14.7143 16.6165 14.9358 16.7083 15.1667 16.7083H16.9084C17.1393 16.7083 17.3608 16.6165 17.5242 16.4532C17.6875 16.2899 17.7792 16.0684 17.7792 15.8375V8.87083C17.7792 8.63987 17.6875 8.41837 17.5242 8.25506C17.3608 8.09175 17.1393 8 16.9084 8H15.1667C14.9358 8 14.7143 8.09175 14.551 8.25506C14.3876 8.41837 14.2959 8.63987 14.2959 8.87083Z" stroke="#999" stroke-width="2" stroke-linecap="round" stroke-linejoin="round"/>
<path d="M20.3916 8V11.4833C20.3916 11.7143 20.4833 11.9358 20.6467 12.0991C20.81 12.2624 21.0315 12.3541 21.2624 12.3541H23.8749" stroke="#999" stroke-width="2" stroke-linecap="round" stroke-linejoin="round"/>
<path d="M23.875 8V16.7083" stroke="#999" stroke-width="2" stroke-linecap="round" stroke-linejoin="round"/>
<path d="M1.70706 11.7071C2.09753 11.3166 2.09753 10.6833 1.70706 10.2929C1.31659 9.90238 0.683316 9.90238 0.29285 10.2929C-0.0976165 10.6833 -0.0976165 11.3166 0.29285 11.7071C0.683472 12.0977 1.31659 12.0977 1.70706 11.7071ZM5.70703 14.2929C5.31657 13.9024 4.68329 13.9024 4.29282 14.2929C3.90236 14.6834 3.90236 15.3167 4.29282 15.7071C4.68329 16.0976 5.31657 16.0976 5.70703 15.7071C6.09766 15.3167 6.09766 14.6835 5.70703 14.2929ZM5.67672 10.6768L5.32329 10.3233C5.12797 10.128 4.81141 10.128 4.61626 10.3233L0.323318 14.6163C0.128007 14.8117 0.128007 15.1282 0.323318 15.3234L0.676753 15.6768C0.872065 15.8721 1.18863 15.8721 1.38378 15.6768L5.67672 11.3838C5.87203 11.1886 5.87203 10.8721 5.67672 10.6768Z" fill="#999"/>
</svg>
