<svg xmlns="http://www.w3.org/2000/svg" viewBox="0 0 97.388 157.505" id="root"><defs><clipPath id="a" clipPathUnits="userSpaceOnUse"><path d="M157.338 189.879H34.016v-34.333h123.322z"/></clipPath><clipPath id="b" clipPathUnits="userSpaceOnUse"><path d="M34.016 189.874h123.307v-36H34.016Z" style="clip-rule:evenodd"/></clipPath><clipPath id="c" clipPathUnits="userSpaceOnUse"><path d="M0 841.89h595.276V0H0Z"/></clipPath><clipPath id="d" clipPathUnits="userSpaceOnUse"><path d="M.015 841.89h595.29V0H.015Z"/></clipPath></defs><g clip-path="url(#a)" transform="matrix(4.60313 0 0 -4.60313 -156.58 874.015)"><g clip-path="url(#b)"><g clip-path="url(#c)"><g clip-path="url(#d)"><path d="M0 0c-10.047-16.472-21.157-25.002-21.157-25.002 3.036-2.009 4.21-4.553 4.21-4.553l1.476 1.154c-.359.674-1.321 2.17-2.857 3.4 2.989 2.66 9.422 8.919 16.004 18.389-.621-5.291-.849-12.419.23-18.07-2.534-.963-9.058-4.486-11.423-9.54h2.256c3.663 6.398 11.097 8.395 11.097 8.395C-2.443-12.523 0 0 0 0" style="fill:#24486d;fill-opacity:1;fill-rule:nonzero;stroke:none" transform="translate(55.173 189.879)"/><path d="M0 0c.324.308 1.212.426 1.67-.002.511-.477.383-1.026.034-1.423-.508-.579-2.399-1.925-2.895-2.231h-.333c-.121.16-.836 1.288-.983 1.817-.157.562-.129 1.27.496 1.777C-1.381.453-.669.428 0 0" style="fill:#24486d;fill-opacity:1;fill-rule:evenodd;stroke:none" transform="translate(46.928 170.71)"/><path d="M0 0c.537.245.985.907.746 1.558-.231.624-.949.633-1.445.452C-1.617 1.676-3.526.465-3.847.228l-.118-.313c.216-.32.905-1.144 1.367-1.501.463-.357 1.139-.568 1.823-.185C-.068-1.376.159-.635 0 0" style="fill:#24486d;fill-opacity:1;fill-rule:evenodd;stroke:none" transform="translate(50.03 166.29)"/><path d="M0 0c-.326-.305-1.218-.423-1.679.002-.514.475-.385 1.02-.034 1.414.51.576 2.411 1.913 2.91 2.217h.335c.121-.159.841-1.28.989-1.805.157-.559.13-1.262-.499-1.766C1.388-.45.673-.425 0 0" style="fill:#24486d;fill-opacity:1;fill-rule:evenodd;stroke:none" transform="translate(44.022 162.061)"/><path d="M0 0c-.537-.245-.986-.907-.746-1.558.231-.625.949-.633 1.446-.452.917.334 2.825 1.545 3.147 1.782l.118.313c-.216.32-.905 1.145-1.367 1.501-.463.357-1.139.567-1.822.185A1.564 1.564 0 0 1 0 0" style="fill:#24486d;fill-opacity:1;fill-rule:evenodd;stroke:none" transform="translate(40.935 166.484)"/></g></g></g></g></svg>