<svg xmlns="http://www.w3.org/2000/svg" viewBox="0 0 25 25" id="root"><path fill="currentColor" d="M21.5 24h-18a1.46 1.46 0 0 1-1.055-.434A1.43 1.43 0 0 1 2 22.5V1.523q0-.632.445-1.066A1.46 1.46 0 0 1 3.5.023H14v8.25a.72.72 0 0 0 .223.528.72.72 0 0 0 .527.222H23V22.5q0 .633-.434 1.066A1.45 1.45 0 0 1 21.5 24m-2.25-4.5h-.75v-5.25a.72.72 0 0 0-.223-.527.72.72 0 0 0-.527-.223h-1.5a.72.72 0 0 0-.527.223.72.72 0 0 0-.223.527v5.25H14v-8.25a.72.72 0 0 0-.223-.527.72.72 0 0 0-.527-.223h-1.5a.72.72 0 0 0-.527.223.72.72 0 0 0-.223.527v8.25H9.5v-3.75a.72.72 0 0 0-.223-.527A.72.72 0 0 0 8.75 15h-1.5a.72.72 0 0 0-.527.223.72.72 0 0 0-.223.527v3.75h-.75a.72.72 0 0 0-.527.223.72.72 0 0 0-.223.527.72.72 0 0 0 .223.527.72.72 0 0 0 .527.223h13.5a.7.7 0 0 0 .54-.223.74.74 0 0 0 .21-.527.72.72 0 0 0-.223-.527.72.72 0 0 0-.527-.223M15.5 0q.61 0 1.031.422l6.024 6.023Q23 6.891 23 7.523h-7.5z"/></svg>