<svg xmlns="http://www.w3.org/2000/svg" viewBox="0 0 25 25" id="root"><path fill="currentColor" d="M24.531 22.344 17.97 15.78c-.313-.312-.782-.469-1.25-.469 1.25-1.562 2.031-3.75 2.031-5.937C18.75 4.219 14.531 0 9.375 0S0 4.219 0 9.375s4.219 9.375 9.375 9.375c2.188 0 4.375-.781 5.938-2.187 0 .468 0 .937.468 1.25l6.563 6.562c.312.313.781.469 1.093.469a1.7 1.7 0 0 0 1.094-.469c.625-.469.625-1.406 0-2.031M9.375 16.406a7 7 0 0 1-7.031-7.031 7 7 0 0 1 7.031-7.031 7 7 0 0 1 7.031 7.031 7 7 0 0 1-7.031 7.031"/></svg>