<svg xmlns="http://www.w3.org/2000/svg" viewBox="0 0 25 25" id="root"><path fill="none" stroke="currentColor" stroke-linecap="round" stroke-linejoin="round" stroke-width="2" d="M8.2 8v3.483a.87.87 0 0 0 .87.871h2.613m0-4.354v8.708m2.613-7.838v6.968a.87.87 0 0 0 .87.87h1.742a.87.87 0 0 0 .871-.87V8.87A.87.87 0 0 0 16.91 8h-1.742a.87.87 0 0 0-.871.87M20.392 8v3.483a.87.87 0 0 0 .87.871h2.613m0-4.354v8.708"/><path fill="currentColor" d="M1.707 11.707a1 1 0 1 0-1.414-1.414 1 1 0 0 0 1.414 1.414m4 2.586a1 1 0 1 0-1.414 1.414 1 1 0 0 0 1.414-1.414m-.03-3.616-.354-.354a.5.5 0 0 0-.707 0L.323 14.616a.5.5 0 0 0 0 .707l.354.354a.5.5 0 0 0 .707 0l4.293-4.293a.5.5 0 0 0 0-.707"/></svg>