<svg xmlns="http://www.w3.org/2000/svg" viewBox="0 0 25 25" id="root"><path fill="currentColor" d="M23.929 20H11.07q-.434 0-.753-.29A.92.92 0 0 1 10 19V5.016q0-.423.318-.711.318-.29.753-.29h7.5v5.5q0 .204.16.352a.53.53 0 0 0 .376.149H25V19a.93.93 0 0 1-.31.71q-.31.29-.761.29m-1.608-3h-.535v-3.5a.47.47 0 0 0-.16-.352.53.53 0 0 0-.376-.148h-1.071a.54.54 0 0 0-.377.148.47.47 0 0 0-.16.352V17h-1.07v-5.5a.47.47 0 0 0-.16-.352.53.53 0 0 0-.376-.148h-1.072q-.217 0-.376.148a.47.47 0 0 0-.16.352V17h-1.07v-2.5a.47.47 0 0 0-.16-.352.53.53 0 0 0-.377-.148H13.75a.54.54 0 0 0-.377.148.47.47 0 0 0-.159.352V17h-.535a.54.54 0 0 0-.377.148.466.466 0 0 0 0 .704.53.53 0 0 0 .377.148h9.642q.235 0 .385-.148a.477.477 0 0 0-.008-.704.53.53 0 0 0-.377-.148M19.643 4q.435 0 .736.281l4.303 4.016a.95.95 0 0 1 .318.719h-5.357zM2.37 10.276a1.296 1.296 0 0 0 0-1.886 1.43 1.43 0 0 0-1.963 0 1.296 1.296 0 0 0 0 1.886 1.43 1.43 0 0 0 1.964 0m5.556 3.448a1.43 1.43 0 0 0-1.964 0 1.296 1.296 0 0 0 0 1.886 1.43 1.43 0 0 0 1.964 0 1.296 1.296 0 0 0 0-1.886m-.042-4.822-.49-.47a.715.715 0 0 0-.983 0L.45 14.154a.65.65 0 0 0 0 .943l.49.471c.272.26.712.26.983 0l5.962-5.724a.65.65 0 0 0 0-.943"/></svg>