<svg width="30" height="36" viewBox="0 0 30 36" fill="none" xmlns="http://www.w3.org/2000/svg">
<path fill-rule="evenodd" clip-rule="evenodd" d="M1.08314 12.24H28.9765C29.0745 11.9897 29.1803 11.6948 29.2857 11.3571L29.3022 11.3044C29.67 10.1272 30 9.07081 30 6.91737C30 5.82537 29.2905 4.90586 28.3514 4.17879C27.3998 3.44217 26.1003 2.81149 24.6528 2.29741C21.754 1.26791 18.098 0.649048 15 0.649048C11.902 0.649048 8.24605 1.26791 5.34723 2.29741C3.89973 2.81149 2.60018 3.44217 1.64864 4.17879C0.709499 4.90586 0 5.82537 0 6.91737C0 8.91654 0.334363 9.97017 0.677863 11.0529C0.709909 11.1538 0.741955 11.2549 0.773864 11.357C0.879273 11.6946 0.985091 11.9896 1.08314 12.24ZM9.54545 8.14905C9.54545 7.39594 10.156 6.78541 10.9091 6.78541H19.0909C19.844 6.78541 20.4545 7.39594 20.4545 8.14905C20.4545 8.90216 19.844 9.51268 19.0909 9.51268H10.9091C10.156 9.51268 9.54545 8.90216 9.54545 8.14905Z" fill="#00A3FF"/>
<path fill-rule="evenodd" clip-rule="evenodd" d="M1.39279 15.5271C1.4547 15.2028 1.75157 14.9672 2.09807 14.9672H27.9019C28.2484 14.9672 28.5452 15.2028 28.6072 15.5271L28.6074 15.5287L28.6078 15.5303L28.6085 15.5343L28.6102 15.5436L28.6141 15.5684C28.617 15.5876 28.6203 15.6123 28.6234 15.6419C28.6297 15.7012 28.6354 15.7808 28.6362 15.8778C28.6378 16.0718 28.62 16.3373 28.5465 16.65C28.3978 17.2821 28.0272 18.0855 27.1783 18.8663C25.4955 20.4143 22.038 21.7853 15 21.7853C7.96198 21.7853 4.50447 20.4143 2.82161 18.8663C1.97275 18.0855 1.60211 17.2821 1.45347 16.65C1.37997 16.3373 1.36211 16.0718 1.36375 15.8778C1.36457 15.7808 1.37029 15.7012 1.37657 15.6419C1.3797 15.6123 1.38298 15.5876 1.38584 15.5684L1.38979 15.5436L1.39143 15.5343L1.39211 15.5303L1.39252 15.5287L1.39279 15.5271Z" fill="#00A3FF"/>
<rect x="2.71454" y="17.4491" width="2.67543" height="17.9018" rx="1.33772" fill="#00A3FF"/>
<rect x="2.7146" y="35.3508" width="2.67543" height="24.551" rx="1.33772" transform="rotate(-90 2.7146 35.3508)" fill="#00A3FF"/>
<rect x="24.5902" y="17.4491" width="2.67543" height="17.9018" rx="1.33772" fill="#00A3FF"/>
<ellipse cx="19.4545" cy="23.5834" rx="2.03736" ry="1.0405" transform="rotate(-179.128 19.4545 23.5834)" fill="#393939"/>
<ellipse cx="19.4444" cy="24.277" rx="2.03736" ry="1.0405" transform="rotate(-179.128 19.4444 24.277)" fill="white"/>
<ellipse cx="10.3391" cy="23.5863" rx="2.03736" ry="1.0405" transform="rotate(-179.128 10.3391 23.5863)" fill="#393939"/>
<ellipse cx="10.329" cy="24.2799" rx="2.03736" ry="1.0405" transform="rotate(-179.128 10.329 24.2799)" fill="white"/>
</svg>
