<svg width="16" height="16" viewBox="0 0 16 16" fill="none" xmlns="http://www.w3.org/2000/svg">
<path d="M8.91992 8.3625V9.6C8.91992 9.8072 8.83761 10.0059 8.6911 10.1524C8.54459 10.2989 8.34587 10.3813 8.13867 10.3813C7.93147 10.3813 7.73276 10.2989 7.58624 10.1524C7.43973 10.0059 7.35742 9.8072 7.35742 9.6V8.3625C7.13242 8.225 6.95742 8.025 6.83242 7.7875H2.51367C2.16992 7.7875 1.88867 8.06875 1.88867 8.4125V10.6188C1.88867 12.625 3.51367 14.25 5.51992 14.25H10.7512C12.7637 14.25 14.3887 12.625 14.3887 10.6188V8.4125C14.3887 8.06875 14.1074 7.7875 13.7637 7.7875H9.44492C9.31992 8.025 9.14492 8.225 8.91992 8.3625ZM10.7574 1.75H5.51992C3.51367 1.75 1.88867 3.375 1.88867 5.38125V6.225C1.88867 6.56875 2.16992 6.85 2.51367 6.85H6.68242C6.71766 6.64603 6.79526 6.45171 6.91021 6.27957C7.02516 6.10743 7.17491 5.96129 7.34981 5.85058C7.5247 5.73987 7.72086 5.66705 7.92563 5.63681C8.1304 5.60656 8.33924 5.61958 8.53867 5.675C9.03867 5.80625 9.44492 6.2125 9.57617 6.7125C9.58867 6.75625 9.58867 6.80625 9.59492 6.85H13.7637C14.1074 6.85 14.3887 6.56875 14.3887 6.225V5.38125C14.3887 3.375 12.7637 1.75 10.7574 1.75Z" fill="#DAAA00"/>
</svg>
