<svg width="16" height="16" viewBox="0 0 16 16" fill="none" xmlns="http://www.w3.org/2000/svg">
<path d="M7.54937 0.5C3.38026 0.5 0 3.88148 0 8.04937C0 12.2197 3.38026 15.5987 7.54937 15.5987C11.7185 15.5987 15.0987 12.2197 15.0987 8.04937C15.0987 3.88148 11.7185 0.5 7.54937 0.5ZM7.54937 3.84851C8.25547 3.84851 8.82789 4.42092 8.82789 5.12703C8.82789 5.83314 8.25547 6.40555 7.54937 6.40555C6.84326 6.40555 6.27084 5.83314 6.27084 5.12703C6.27084 4.42092 6.84326 3.84851 7.54937 3.84851ZM9.25406 11.5805C9.25406 11.7823 9.0905 11.9458 8.88877 11.9458H6.20996C6.00823 11.9458 5.84467 11.7823 5.84467 11.5805V10.8499C5.84467 10.6482 6.00823 10.4846 6.20996 10.4846H6.57525V8.53642H6.20996C6.00823 8.53642 5.84467 8.37286 5.84467 8.17113V7.44055C5.84467 7.23881 6.00823 7.07525 6.20996 7.07525H8.15819C8.35992 7.07525 8.52348 7.23881 8.52348 7.44055V10.4846H8.88877C9.0905 10.4846 9.25406 10.6482 9.25406 10.8499V11.5805Z" fill="#F3F3F3"/>
</svg>
