<svg width="15" height="16" viewBox="0 0 15 16" fill="none" xmlns="http://www.w3.org/2000/svg">
<path d="M8.097 8.3625V9.6C8.097 9.8072 8.02222 10.0059 7.88911 10.1524C7.75601 10.2989 7.57548 10.3813 7.38723 10.3813C7.19899 10.3813 7.01846 10.2989 6.88535 10.1524C6.75225 10.0059 6.67747 9.8072 6.67747 9.6V8.3625C6.47306 8.225 6.31407 8.025 6.20051 7.7875H2.27692C1.96462 7.7875 1.70911 8.06875 1.70911 8.4125V10.6188C1.70911 12.625 3.18542 14.25 5.0081 14.25H9.76069C11.589 14.25 13.0654 12.625 13.0654 10.6188V8.4125C13.0654 8.06875 12.8098 7.7875 12.4975 7.7875H8.57396C8.4604 8.025 8.30141 8.225 8.097 8.3625ZM9.76637 1.75H5.0081C3.18542 1.75 1.70911 3.375 1.70911 5.38125V6.225C1.70911 6.56875 1.96462 6.85 2.27692 6.85H6.06423C6.09624 6.64603 6.16674 6.45171 6.27117 6.27957C6.3756 6.10743 6.51165 5.96129 6.67055 5.85058C6.82944 5.73987 7.00765 5.66705 7.19369 5.63681C7.37972 5.60656 7.56945 5.61958 7.75063 5.675C8.20488 5.80625 8.57396 6.2125 8.6932 6.7125C8.70456 6.75625 8.70456 6.80625 8.71024 6.85H12.4975C12.8098 6.85 13.0654 6.56875 13.0654 6.225V5.38125C13.0654 3.375 11.589 1.75 9.76637 1.75Z" fill="#EC775C"/>
</svg>
