<svg width="13" height="14" viewBox="0 0 13 14" fill="none" xmlns="http://www.w3.org/2000/svg">
<path d="M7.28122 7.3625V8.6C7.28122 8.8072 7.19891 9.00591 7.0524 9.15243C6.90588 9.29894 6.70717 9.38125 6.49997 9.38125C6.29277 9.38125 6.09406 9.29894 5.94754 9.15243C5.80103 9.00591 5.71872 8.8072 5.71872 8.6V7.3625C5.49372 7.225 5.31872 7.025 5.19372 6.7875H0.874969C0.531219 6.7875 0.249969 7.06875 0.249969 7.4125V9.61875C0.249969 11.625 1.87497 13.25 3.88122 13.25H9.11247C11.125 13.25 12.75 11.625 12.75 9.61875V7.4125C12.75 7.06875 12.4687 6.7875 12.125 6.7875H7.80622C7.68122 7.025 7.50622 7.225 7.28122 7.3625ZM9.11872 0.75H3.88122C1.87497 0.75 0.249969 2.375 0.249969 4.38125V5.225C0.249969 5.56875 0.531219 5.85 0.874969 5.85H5.04372C5.07896 5.64603 5.15655 5.45171 5.2715 5.27957C5.38645 5.10743 5.53621 4.96129 5.7111 4.85058C5.886 4.73987 6.08216 4.66705 6.28693 4.63681C6.4917 4.60656 6.70054 4.61958 6.89997 4.675C7.39997 4.80625 7.80622 5.2125 7.93747 5.7125C7.94997 5.75625 7.94997 5.80625 7.95622 5.85H12.125C12.4687 5.85 12.75 5.56875 12.75 5.225V4.38125C12.75 2.375 11.125 0.75 9.11872 0.75Z" fill="#EC775C"/>
</svg>
