<svg width="15" height="16" viewBox="0 0 15 16" fill="none" xmlns="http://www.w3.org/2000/svg">
<path d="M13.6957 3.3875L8.79196 0.815C7.99119 0.395 7.00055 0.395 6.19152 0.815L1.29609 3.3875C0.901301 3.59546 0.573697 3.89414 0.346191 4.25354C0.118686 4.61294 -0.000708259 5.0204 3.16078e-06 5.435V10.565C3.16078e-06 11.405 0.495325 12.185 1.29609 12.6125L6.19978 15.185C7.00055 15.605 7.99119 15.605 8.80022 15.185L13.7039 12.6125C14.0987 12.4045 14.4263 12.1059 14.6538 11.7465C14.8813 11.3871 15.0007 10.9796 15 10.565V5.435C14.9964 5.02031 14.8743 4.61358 14.6457 4.25465C14.417 3.89573 14.0896 3.59692 13.6957 3.3875ZM6.87672 4.8125C6.87672 4.505 7.1574 4.25 7.49587 4.25C7.83434 4.25 8.11502 4.505 8.11502 4.8125V8.75C8.11502 9.0575 7.83434 9.3125 7.49587 9.3125C7.1574 9.3125 6.87672 9.0575 6.87672 8.75V4.8125ZM8.25537 11.4725C8.21409 11.5625 8.1563 11.645 8.082 11.72C7.96651 11.8249 7.81906 11.896 7.65867 11.9241C7.49828 11.9522 7.33231 11.9359 7.18217 11.8775C7.07485 11.84 6.9923 11.7875 6.90974 11.72C6.83544 11.645 6.77766 11.5625 6.72812 11.4725C6.68836 11.3819 6.66872 11.285 6.67034 11.1875C6.67034 10.9925 6.75289 10.7975 6.90974 10.655C6.9923 10.5875 7.07485 10.535 7.18217 10.4975C7.48762 10.3775 7.85085 10.445 8.082 10.655C8.1563 10.73 8.21409 10.805 8.25537 10.9025C8.29664 10.9925 8.32141 11.09 8.32141 11.1875C8.32141 11.285 8.29664 11.3825 8.25537 11.4725Z" fill="#FF0000"/>
</svg>
