<svg width="15" height="16" viewBox="0 0 15 16" fill="none" xmlns="http://www.w3.org/2000/svg">
<path d="M7.5 0.5C3.345 0.5 0 3.845 0 8C0 12.155 3.345 15.5 7.5 15.5C11.655 15.5 15 12.155 15 8C15 3.845 11.655 0.5 7.5 0.5ZM10.741 4.62537C10.9093 4.62537 11.0517 4.6833 11.1694 4.80115L12.0282 5.65992C12.146 5.77777 12.2059 5.92191 12.2058 6.09021C12.2058 6.25859 12.146 6.40082 12.0282 6.51867L7.45789 11.089L6.59912 11.9478C6.48127 12.0655 6.33712 12.1254 6.16883 12.1254C6.00044 12.1254 5.85814 12.0656 5.74036 11.9478L4.88159 11.089L2.59643 8.80383C2.47857 8.68605 2.41883 8.54367 2.41883 8.37537C2.41883 8.20698 2.47854 8.06292 2.59643 7.94507L3.4552 7.0863C3.57306 6.96844 3.71528 6.91052 3.88367 6.91052C4.05197 6.91052 4.19611 6.96846 4.31396 7.0863L6.16883 8.95032L10.3107 4.80115C10.4284 4.68328 10.5726 4.62537 10.741 4.62537Z" fill="#50BE87"/>
</svg>
