<svg width="18" height="24" viewBox="0 0 18 24" fill="none" xmlns="http://www.w3.org/2000/svg">
<g id="icon lightning">
<path id="Vector" d="M17.3849 11.7458L6.18489 23.7459C6.06613 23.8731 5.9091 23.9581 5.73764 23.9881C5.56618 24.018 5.38963 23.9912 5.23477 23.9117C5.07992 23.8323 4.9552 23.7045 4.87955 23.5477C4.80389 23.391 4.78143 23.2138 4.81555 23.0431L6.28216 15.7102L0.519115 13.5491C0.395963 13.5029 0.286096 13.4271 0.199241 13.3283C0.112387 13.2295 0.0512239 13.1109 0.021168 12.9828C-0.0088879 12.8548 -0.00690967 12.7213 0.0269275 12.5942C0.0607646 12.4671 0.125417 12.3503 0.21516 12.2541L11.4152 0.254139C11.5339 0.126897 11.691 0.0418583 11.8624 0.0119223C12.0339 -0.0180137 12.2104 0.00878582 12.3653 0.0882561C12.5201 0.167726 12.6449 0.295531 12.7205 0.452286C12.7962 0.60904 12.8186 0.786192 12.7845 0.95687L11.3179 8.28979L17.0809 10.4509C17.2041 10.4971 17.314 10.5729 17.4008 10.6717C17.4877 10.7705 17.5488 10.8891 17.5789 11.0172C17.609 11.1452 17.607 11.2787 17.5731 11.4058C17.5393 11.5329 17.4746 11.6497 17.3849 11.7458Z" fill="#C81640"/>
</g>
</svg>
