<svg width="24" height="24" viewBox="0 0 24 24" fill="none" xmlns="http://www.w3.org/2000/svg">
<path d="M13.25 12.58V14.56C13.25 14.8915 13.1183 15.2095 12.8839 15.4439C12.6495 15.6783 12.3315 15.81 12 15.81C11.6685 15.81 11.3505 15.6783 11.1161 15.4439C10.8817 15.2095 10.75 14.8915 10.75 14.56V12.58C10.39 12.36 10.11 12.04 9.91 11.66H3C2.45 11.66 2 12.11 2 12.66V16.19C2 19.4 4.6 22 7.81 22H16.18C19.4 22 22 19.4 22 16.19V12.66C22 12.11 21.55 11.66 21 11.66H14.09C13.89 12.04 13.61 12.36 13.25 12.58ZM16.19 2H7.81C4.6 2 2 4.6 2 7.81V9.16C2 9.71 2.45 10.16 3 10.16H9.67C9.72638 9.83365 9.85053 9.52273 10.0345 9.24731C10.2184 8.97189 10.458 8.73807 10.7378 8.56093C11.0176 8.3838 11.3315 8.26728 11.6591 8.21889C11.9868 8.1705 12.3209 8.19132 12.64 8.28C13.44 8.49 14.09 9.14 14.3 9.94C14.32 10.01 14.32 10.09 14.33 10.16H21C21.55 10.16 22 9.71 22 9.16V7.81C22 4.6 19.4 2 16.19 2Z" fill="#009E8F"/>
</svg>
