<svg width="13" height="14" viewBox="0 0 13 14" fill="none" xmlns="http://www.w3.org/2000/svg">
<path d="M7.097 7.3625V8.6C7.097 8.8072 7.02222 9.00591 6.88911 9.15243C6.75601 9.29894 6.57548 9.38125 6.38723 9.38125C6.19899 9.38125 6.01846 9.29894 5.88535 9.15243C5.75225 9.00591 5.67747 8.8072 5.67747 8.6V7.3625C5.47306 7.225 5.31407 7.025 5.20051 6.7875H1.27692C0.964622 6.7875 0.709106 7.06875 0.709106 7.4125V9.61875C0.709106 11.625 2.18542 13.25 4.0081 13.25H8.76069C10.589 13.25 12.0654 11.625 12.0654 9.61875V7.4125C12.0654 7.06875 11.8098 6.7875 11.4975 6.7875H7.57396C7.4604 7.025 7.30141 7.225 7.097 7.3625ZM8.76637 0.75H4.0081C2.18542 0.75 0.709106 2.375 0.709106 4.38125V5.225C0.709106 5.56875 0.964622 5.85 1.27692 5.85H5.06423C5.09624 5.64603 5.16674 5.45171 5.27117 5.27957C5.3756 5.10743 5.51165 4.96129 5.67055 4.85058C5.82944 4.73987 6.00765 4.66705 6.19369 4.63681C6.37972 4.60656 6.56945 4.61958 6.75063 4.675C7.20488 4.80625 7.57396 5.2125 7.6932 5.7125C7.70456 5.75625 7.70456 5.80625 7.71024 5.85H11.4975C11.8098 5.85 12.0654 5.56875 12.0654 5.225V4.38125C12.0654 2.375 10.589 0.75 8.76637 0.75Z" fill="#009E8F"/>
</svg>
