<svg width="25" height="15" viewBox="0 0 25 15" fill="none" xmlns="http://www.w3.org/2000/svg">
<path d="M0 4C0 1.79086 1.79086 0 4 0H21C23.2091 0 25 1.79086 25 4V11C25 13.2091 23.2091 15 21 15H4C1.79086 15 0 13.2091 0 11V4Z" fill="#F6F6F6"/>
<path d="M8.57143 11.2857C8.57143 11.513 8.66173 11.7311 8.82248 11.8918C8.98323 12.0526 9.20124 12.1429 9.42857 12.1429H14.5714C14.7988 12.1429 15.0168 12.0526 15.1775 11.8918C15.3383 11.7311 15.4286 11.513 15.4286 11.2857V5.28572H8.57143V11.2857ZM13.4286 6.71429C13.4286 6.63851 13.4587 6.56584 13.5123 6.51226C13.5658 6.45868 13.6385 6.42857 13.7143 6.42857C13.7901 6.42857 13.8627 6.45868 13.9163 6.51226C13.9699 6.56584 14 6.63851 14 6.71429V10.7143C14 10.7901 13.9699 10.8627 13.9163 10.9163C13.8627 10.9699 13.7901 11 13.7143 11C13.6385 11 13.5658 10.9699 13.5123 10.9163C13.4587 10.8627 13.4286 10.7901 13.4286 10.7143V6.71429ZM11.7143 6.71429C11.7143 6.63851 11.7444 6.56584 11.798 6.51226C11.8516 6.45868 11.9242 6.42857 12 6.42857C12.0758 6.42857 12.1484 6.45868 12.202 6.51226C12.2556 6.56584 12.2857 6.63851 12.2857 6.71429V10.7143C12.2857 10.7901 12.2556 10.8627 12.202 10.9163C12.1484 10.9699 12.0758 11 12 11C11.9242 11 11.8516 10.9699 11.798 10.9163C11.7444 10.8627 11.7143 10.7901 11.7143 10.7143V6.71429ZM10 6.71429C10 6.63851 10.0301 6.56584 10.0837 6.51226C10.1373 6.45868 10.2099 6.42857 10.2857 6.42857C10.3615 6.42857 10.4342 6.45868 10.4877 6.51226C10.5413 6.56584 10.5714 6.63851 10.5714 6.71429V10.7143C10.5714 10.7901 10.5413 10.8627 10.4877 10.9163C10.4342 10.9699 10.3615 11 10.2857 11C10.2099 11 10.1373 10.9699 10.0837 10.9163C10.0301 10.8627 10 10.7901 10 10.7143V6.71429ZM15.7143 3.57143H13.5714L13.4036 3.2375C13.368 3.16611 13.3132 3.10606 13.2454 3.0641C13.1776 3.02214 13.0994 2.99995 13.0196 3H10.9786C10.899 2.9997 10.8209 3.02181 10.7534 3.06382C10.6858 3.10582 10.6314 3.16602 10.5964 3.2375L10.4286 3.57143H8.28571C8.20994 3.57143 8.13727 3.60153 8.08368 3.65512C8.0301 3.7087 8 3.78137 8 3.85715V4.42857C8 4.50435 8.0301 4.57702 8.08368 4.63061C8.13727 4.68419 8.20994 4.71429 8.28571 4.71429H15.7143C15.7901 4.71429 15.8627 4.68419 15.9163 4.63061C15.9699 4.57702 16 4.50435 16 4.42857V3.85715C16 3.78137 15.9699 3.7087 15.9163 3.65512C15.8627 3.60153 15.7901 3.57143 15.7143 3.57143Z" fill="#333333"/>
</svg>
