<svg width="15" height="16" viewBox="0 0 15 16" fill="none" xmlns="http://www.w3.org/2000/svg">
<path d="M13.016 3.3875L8.56099 0.815C7.83349 0.395 6.93349 0.395 6.19849 0.815L1.75099 3.3875C1.39232 3.59546 1.09469 3.89414 0.888001 4.25354C0.681312 4.61294 0.572843 5.0204 0.573489 5.435V10.565C0.573489 11.405 1.02349 12.185 1.75099 12.6125L6.20599 15.185C6.93349 15.605 7.83349 15.605 8.56849 15.185L13.0235 12.6125C13.3822 12.4045 13.6798 12.1059 13.8865 11.7465C14.0932 11.3871 14.2016 10.9796 14.201 10.565V5.435C14.1977 5.02031 14.0868 4.61358 13.8791 4.25465C13.6713 3.89573 13.3739 3.59692 13.016 3.3875ZM6.82099 4.8125C6.82099 4.505 7.07599 4.25 7.38349 4.25C7.69099 4.25 7.94599 4.505 7.94599 4.8125V8.75C7.94599 9.0575 7.69099 9.3125 7.38349 9.3125C7.07599 9.3125 6.82099 9.0575 6.82099 8.75V4.8125ZM8.07349 11.4725C8.03599 11.5625 7.98349 11.645 7.91599 11.72C7.81107 11.8249 7.6771 11.896 7.53139 11.9241C7.38567 11.9522 7.23489 11.9359 7.09849 11.8775C7.00099 11.84 6.92599 11.7875 6.85099 11.72C6.78349 11.645 6.73099 11.5625 6.68599 11.4725C6.64986 11.3819 6.63202 11.285 6.63349 11.1875C6.63349 10.9925 6.70849 10.7975 6.85099 10.655C6.92599 10.5875 7.00099 10.535 7.09849 10.4975C7.37599 10.3775 7.70599 10.445 7.91599 10.655C7.98349 10.73 8.03599 10.805 8.07349 10.9025C8.11099 10.9925 8.13349 11.09 8.13349 11.1875C8.13349 11.285 8.11099 11.3825 8.07349 11.4725Z" fill="#FF7900"/>
</svg>
